<svg xmlns="http://www.w3.org/2000/svg" viewBox="0 0 64 64" role="img" aria-labelledby="title desc">
  <title id="title">Логотип Кінний Світ</title>
  <desc id="desc">Стилізований профіль голови коня</desc>
  <g fill="none" stroke="#b97846" stroke-width="2.4" stroke-linecap="round" stroke-linejoin="round">
    <path d="M18 49c-4-9-2-22 5-30 5-5 12-8 19-9-3 4-4 8-3 12 5 2 9 6 11 11-2 6-7 10-13 10-6 0-9-4-12-8"/>
    <path d="M38 22l8-8-1 12"/>
    <path d="M24 20l-1-8 7 6"/>
    <path d="M33 31c4 1 7 3 9 6"/>
    <circle cx="36" cy="27" r="1.2" fill="#b97846" stroke="none"/>
  </g>
</svg>
